<svg width="18" height="18" viewBox="0 0 18 18" fill="none" xmlns="http://www.w3.org/2000/svg">
<g filter="url(#filter0_d_1704_9851)">
<path d="M2 8C2 4.13401 5.13401 1 9 1V1C12.866 1 16 4.13401 16 8V8C16 11.866 12.866 15 9 15V15C5.13401 15 2 11.866 2 8V8Z" fill="white"/>
<path d="M5 8C5 5.79086 6.79086 4 9 4V4C11.2091 4 13 5.79086 13 8V8C13 10.2091 11.2091 12 9 12V12C6.79086 12 5 10.2091 5 8V8Z" fill="#18181B"/>
<path d="M9 14.5C5.41015 14.5 2.5 11.5899 2.5 8C2.5 4.41015 5.41015 1.5 9 1.5C12.5899 1.5 15.5 4.41015 15.5 8C15.5 11.5899 12.5899 14.5 9 14.5Z" stroke="#18181B"/>
</g>
<defs>
<filter id="filter0_d_1704_9851" x="0" y="0" width="18" height="18" filterUnits="userSpaceOnUse" color-interpolation-filters="sRGB">
<feFlood flood-opacity="0" result="BackgroundImageFix"/>
<feColorMatrix in="SourceAlpha" type="matrix" values="0 0 0 0 0 0 0 0 0 0 0 0 0 0 0 0 0 0 127 0" result="hardAlpha"/>
<feOffset dy="1"/>
<feGaussianBlur stdDeviation="1"/>
<feColorMatrix type="matrix" values="0 0 0 0 0.0627451 0 0 0 0 0.0941176 0 0 0 0 0.156863 0 0 0 0.05 0"/>
<feBlend mode="normal" in2="BackgroundImageFix" result="effect1_dropShadow_1704_9851"/>
<feBlend mode="normal" in="SourceGraphic" in2="effect1_dropShadow_1704_9851" result="shape"/>
</filter>
</defs>
</svg>
