<svg width="15" height="17" viewBox="0 0 15 17" fill="none" xmlns="http://www.w3.org/2000/svg">
<path d="M12.375 7H2.625C1.72754 7 1 7.80589 1 8.8V14.2C1 15.1941 1.72754 16 2.625 16H12.375C13.2725 16 14 15.1941 14 14.2V8.8C14 7.80589 13.2725 7 12.375 7Z" stroke="white" stroke-width="2" stroke-linecap="round" stroke-linejoin="round"/>
<path d="M11 7V4C11 3.20435 10.6313 2.44129 9.97487 1.87868C9.3185 1.31607 8.42826 1 7.5 1C6.57174 1 5.6815 1.31607 5.02513 1.87868C4.36875 2.44129 4 3.20435 4 4V7" stroke="white" stroke-width="2" stroke-linecap="round" stroke-linejoin="round"/>
</svg>
