<svg xmlns="http://www.w3.org/2000/svg" width="45" height="45" fill="none"><g clip-path="url(#a)"><rect width="45" height="45" fill="url(#b)" rx="22.5"/><path fill="#4D7DFF" d="M14.65 21.68h-1.48c-.81 0-1.48 1.22-1.48 2.73 0 1.5.67 2.72 1.48 2.72h1.48c.82 0 1.48-1.22 1.48-2.72 0-1.51-.66-2.73-1.48-2.73Z"/><path stroke="#000" stroke-linecap="round" stroke-linejoin="round" stroke-width=".09" d="M19.11 34.65c-1 0-2-.1-2.98-.3C11 33.32 7.06 29.8 5.54 25.48"/><path fill="#3F99F2" d="M18.66 36.51c-.98-.02-1.94-.13-2.9-.32-5.6-1.13-10.2-5-11.98-10.1a1.88 1.88 0 0 1 3.53-1.23c1.35 3.85 4.87 6.78 9.18 7.65.86.17 1.74.26 2.62.26h.05a1.87 1.87 0 0 1-.05 3.75h-.45Z"/><path stroke="#000" stroke-linecap="round" stroke-linejoin="round" stroke-width=".09" d="M32.72 34.65c5.08 2.64 8.62 6 8.13 6.83-.49.84-8.13-1.28-13.61-3.71"/><path fill="#3F99F2" d="M40.13 43.55c-.77 0-1.63-.16-2.53-.35a1.87 1.87 0 0 1-.48-3.49 31.35 31.35 0 0 0-5.26-3.4A1.87 1.87 0 0 1 33.58 33c4.04 2.1 8.45 5.38 9.09 7.6a2.33 2.33 0 0 1-.2 1.84c-.5.84-1.33 1.12-2.34 1.12Z"/><path stroke="#000" stroke-linecap="round" stroke-miterlimit="10" stroke-width=".51" d="M28.04 35.8c4.08 1.81 9.08 3.31 11.39 3.66"/><path fill="#fff" d="M32.87 32.03H18.79c-5.81 6-4.75 13.72-3.89 18.97h21.87c.86-5.25 1.91-12.97-3.9-18.97ZM20.72 18.39c.58-.7.2-2.22-.44-4.28-.52-1.7-.92-3.05-2.15-3.37-.74-.2-1.56-.07-2.61 1.3-.76 1-1.27 2.22-.85 3.35.58 1.61 2.7 2.41 4.42 3.02.75.27 1.35.32 1.63-.02Z"/><path fill="#FF78B9" d="M14.66 15.39c.58 1.61 2.7 2.41 4.42 3.02.5.18.93.26 1.24.2l.4-.22-5.2-6.34c-.76.99-1.27 2.2-.86 3.34Z"/><path fill="#3F99F2" d="M39.1 43.45c-.1 0-.19-.01-.28-.03-2.96-.45-8.38-2.18-12.34-3.94A1.87 1.87 0 0 1 28 36.06c4.08 1.8 9.08 3.3 11.38 3.66a1.87 1.87 0 0 1-.28 3.73Z"/><path fill="#3442D9" d="M33.7 30.7c0 2.27-2.2 2.27-7.87 2.27-5.66 0-7.87.08-7.87-2.27s1.61-2.27 7.87-2.27 7.87 0 7.87 2.27Z"/><path fill="#fff" d="M36.03 20.57c-1.47-1.2-1.72-1.93-2.3-3.94-.77-2.76-2.26-6.03-7.9-6.03-5.64 0-7.13 3.27-7.91 6.03-.57 2.01-.82 2.74-2.3 3.94a5.89 5.89 0 0 0 2.87 10.39c2.75.38 5.57.34 7.33.34 1.77 0 4.58.04 7.34-.34a5.87 5.87 0 0 0 2.87-10.39Z"/><path fill="#336AFF" d="M37.01 27.13c-.81 0-1.48-1.22-1.48-2.72 0-1.51.67-2.73 1.48-2.73h1.48v5.45h-1.48Z"/><path fill="#4D7DFF" d="M38.5 27.13c.81 0 1.47-1.22 1.47-2.72 0-1.51-.66-2.73-1.48-2.73-.81 0-1.48 1.22-1.48 2.73 0 1.5.67 2.72 1.48 2.72Z"/><path fill="#8CD9FF" d="M32.16 13.24C31.9 9.9 32.16 8 25.82 8s-6.09 1.9-6.34 5.24c-.03.48 2.84.88 6.34.88s6.37-.4 6.34-.88Z"/><path fill="#52B3FF" d="M25.82 13.5c3.35 0 5.47-.31 6.3-.65l-.03-.54c-.33.28-2.67.67-6.27.67-1.15 0-2.18-.04-3.05-.1a13.81 13.81 0 0 1 .55-1.5c.99-2.24 2.36-3 4.94-3.25-.4-.05-.82-.08-1.3-.1-.6-.03-1.2.1-1.73.39a5.05 5.05 0 0 0-2.09 2.18 4.23 4.23 0 0 0-1.6-2.03c-.18.07-.36.16-.53.26a3.66 3.66 0 0 1 1.8 2.46c-.22.5-.4 1.02-.56 1.55-1.54-.14-2.5-.36-2.7-.53l-.04.54c.84.34 2.96.64 6.31.64Z"/><path fill="#000" d="M29.39 17.87c.36.3 0 .99-.61 1.74-.61.76-1.24 1.3-1.6 1-.38-.3 0-.97.6-1.73s1.24-1.3 1.6-1Z"/><path fill="#FF99CA" d="M30.6 22.02c.25.2 0 .69-.42 1.21-.42.53-.86.9-1.12.7-.26-.21 0-.69.42-1.21.42-.53.86-.9 1.12-.7ZM32.9 22.02c.25.2 0 .69-.42 1.21-.42.53-.86.9-1.12.7-.26-.21 0-.69.42-1.21.42-.53.86-.9 1.12-.7ZM19 22.72c-.33-.53-.7-.9-1-.7-.29.2-.13.69.2 1.21.32.53.69.9.98.7.3-.21.13-.68-.19-1.21ZM16.14 22.02c-.3.2-.13.69.19 1.21.32.53.69.9.98.7.3-.21.14-.69-.19-1.21-.32-.53-.69-.9-.98-.7Z"/><path fill="#000" d="M19.26 17.9c-.4.24-.17.92.29 1.71.46.8.97 1.38 1.38 1.14.41-.24.17-.93-.29-1.72-.46-.79-.97-1.37-1.38-1.14ZM22.4 22.6c0-.56 1.99-.56 1.99 0 0 .54-.6.85-1 .85-.41 0-1-.3-1-.86Z"/><path fill="#5865F2" d="M4.76 27.55a3.77 3.77 0 1 0 0-7.54 3.77 3.77 0 0 0 0 7.54ZM26.4 41.04a3.77 3.77 0 1 0 0-7.54 3.77 3.77 0 0 0 0 7.54Z"/><path fill="#fff" d="M31.3 18.72c-.72-.74-.45-2.36.06-4.6.43-1.87.76-3.4 2.19-3.7.85-.2 1.82 0 3.12 1.57.93 1.12 1.56 2.45 1.18 3.64-.54 1.67-2.8 2.49-4.67 3.1-.84.3-1.52.35-1.87-.01Z"/><path fill="#FF78B9" d="M33.74 16.63c.15.58.34 1.16.55 1.73 1.57-.58 3.13-1.37 3.56-2.72.38-1.2-.25-2.52-1.18-3.64a7.66 7.66 0 0 0-.6-.65l-2.64 4.3c.12.32.22.66.3.98Z"/><path fill="#FF99CA" d="m22.4 25.33 2.5-.23s-.16 1.66-1.02 1.77c-.86.12-1.14-.8-1.49-1.54Z"/></g><defs><linearGradient id="b" x1="22.5" x2="22.5" y1="3" y2="22.08" gradientUnits="userSpaceOnUse"><stop stop-color="#3F99F2"/><stop offset="1" stop-color="#8CD9FF"/></linearGradient><clipPath id="a"><rect width="45" height="45" fill="#fff" rx="22.5"/></clipPath></defs></svg>