<svg xmlns="http://www.w3.org/2000/svg" width="45" height="45" fill="none"><rect width="45" height="45" fill="#7196FF" rx="22.5"/><path fill="#9CD6FA" d="m25.71 12.65-8.57.9s1.16-1.83 2.63-2.06c1.5-.26 3-.43 4.51-.49.9-.04 1.43.85 1.43 1.65Z"/><path fill="url(#a)" d="M37 26.64c-.62 2.28-3.39 4.51-4.6 5.05-.83.4-1.7.72-2.58.98l-1.16.36a48.14 48.14 0 0 1-7.73 1.25h-.35c-2.14.18-4.29.26-6.43.22-1.92 0-3.13-.9-4.06-2.6a23.1 23.1 0 0 1-2.6-8.21c-.22-2.28.86-4.7 3.49-7.86 1.65-2.01 3.48-2.64 12.54-3.35 5.85-.5 8.4-.5 9.78.98 2.37 2.5 4.46 10.45 3.7 13.18Z"/><path fill="#ED5F00" d="M23.84 14.17c6.25-.53 7.63-.3 8.61 1.48 1.15 2.3 1.9 4.8 2.19 7.37.13 1.7-.27 2.41-6.96 3.17l-9.33-.4-3.13-8.49c.13-1.3.45-1.65 1.56-2.01a35.6 35.6 0 0 1 7.06-1.12Z"/><path fill="#F5C749" d="M30.67 30.17c-.18.71-1.16 2.05-2.01 2.86a48.15 48.15 0 0 1-7.73 1.25h-.35c.87-.87 1.65-1.83 2.32-2.86.94-1.39 1.47-1.48 4.33-1.83 2.86-.36 3.7-.54 3.44.58Z"/><path fill="url(#b)" d="M12.36 24.9c.67 2.5.14 5.31-1.47 5.76-1.6.45-3.21-1.3-3.75-3.8s.54-4.91 2-5.23c1.48-.3 2.6.76 3.22 3.27Z"/><path fill="#FAE773" d="M9.37 26.06c.31 1.11.1 2.36-.67 2.59-.76.22-1.38-.54-1.6-1.65-.23-1.12.17-2.42.71-2.5.54-.1 1.3.44 1.56 1.56Z"/><path fill="#000" d="M23.39 15.25c6.12-.5 7.37-.4 8.17 1.16a20.2 20.2 0 0 1 2.14 7.19c.14 1.65-.58 1.97-7.1 2.68-6.51.72-8.43.5-9.37-1.3-.94-1.78-2.01-5.67-2.01-7.46 0-1.78 1.96-1.74 8.17-2.27Z"/><path fill="#84EE91" d="M21.78 19.94a.85.85 0 0 1-.62 1.11 1.16 1.16 0 0 1-1.12-.98.85.85 0 0 1 .63-1.12 1.16 1.16 0 0 1 1.11.99Zm7.9-.76a1.16 1.16 0 0 0-1.07-.94c-.49.04-.76.53-.62 1.12a1.16 1.16 0 0 0 1.07.93c.5-.04.76-.53.62-1.11Zm-4.37 2.4c-.56.07-1.11.18-1.65.32a1.83 1.83 0 0 0 2 1.34c.94-.13 1.57-.9 1.4-1.7a12.8 12.8 0 0 0-1.75.05Z"/><defs><linearGradient id="a" x1="24.19" x2="19.59" y1="19.46" y2="30.8" gradientUnits="userSpaceOnUse"><stop stop-color="#F5C749"/><stop offset="1" stop-color="#EF913C"/></linearGradient><linearGradient id="b" x1="9.61" x2="10.01" y1="21.68" y2="30.29" gradientUnits="userSpaceOnUse"><stop stop-color="#FAE773"/><stop offset="1" stop-color="#F5C749"/></linearGradient></defs></svg>