<svg xmlns="http://www.w3.org/2000/svg" width="45" height="45" fill="none"><g clip-path="url(#a)"><rect width="45" height="45" fill="#FF82A6" rx="22.5"/><path fill="#FFD736" d="M.46 51.84a3.86 3.86 0 1 0 0-7.71 3.86 3.86 0 0 0 0 7.71Z"/><path fill="#459FF7" d="M18.2 40.01c-4.14 1.48-4.91 1.39-8.35 15.43-4.92-1.38-7.52-1.02-7.94 3.25-.42 4.28 4.85 4.37 9.48 4.44 4.63.06 6.17-2.9 9.35-11.54C23.93 42.94 18.21 40 18.21 40Z"/><path fill="#FFD736" d="M9.33 50.27a3.86 3.86 0 1 0 0-7.72 3.86 3.86 0 0 0 0 7.72Z"/><path fill="#FFD736" d="M4.86 47.95a3.86 3.86 0 1 0 0-7.71 3.86 3.86 0 0 0 0 7.71Z"/><path fill="#fff" d="M14.57 46.31c.36 1.45-3.57 3.67-8.74 4.92-5.18 1.26-9.68 1.1-10.03-.38-.35-1.48 3.47-4.05 8.65-5.3 5.17-1.26 9.77-.71 10.12.76Z"/><path fill="#A6ADFF" d="m12.48 59.82-2.38.57L8.27 44.9c1.12-.09 2.23-.08 3.35.03l.86 14.89Z"/><path fill="#FFD736" d="M32.54 16.55a.87.87 0 1 0 0-1.74.87.87 0 0 0 0 1.74Z"/><path fill="#1D2CC2" d="M21.55 17.03a8.04 8.04 0 1 1 12.5 10.1 8.04 8.04 0 0 1-12.5-10.1Z"/><path fill="#FF78B9" d="M17.43 19.09c-3.85-4.86-4.34-7.72-.35-8.65 2.53-.58 5.15-.59 7.68-.03a7.49 7.49 0 0 1 4.8 3.6c3.05 5.24 3.4 7 3.4 7L17.43 19.1Z"/><path fill="#000" d="M20.55 16.39c-2.22 0-2.15.77-2.06 1.64.1.86 2.06-1.64 2.06-1.64Z"/><path fill="#EB459F" d="m17.43 19.09 15.53 1.93s-.35-1.8-3.4-7.01a7.42 7.42 0 0 0-4.8-3.6 17.62 17.62 0 0 0-7.68.03c-3.99.93-3.5 3.8.35 8.65Zm-.06-7.88c2.23-.48 4.54-.49 6.78-.03 1.82.4 3.41 1.5 4.44 3.05 3.05 4.66 3.53 6.3 3.53 6.3l-14.14-1.76c-3.31-4.73-4.18-6.75-.61-7.56Z"/><path fill="#459FF7" d="M36.53 33.17c-1.26-2.67-1.32-5.18-1.29-7.43a10 10 0 0 0-2.86-7.3c-2.41-2.34-5.08-2.73-7.55-2.86-4.37-.29-13.34 3.48-10.29 18.45 1.9 9.26 4.66 20.06 4.66 20.06s-9.22 15.37 9.03 15.37c13.7 0 17.1-.13 18.84-4.92A16 16 0 0 0 47.1 54c-4.43-13.02-7.55-14.44-10.57-20.83Z"/><path stroke="#000" stroke-linecap="round" stroke-linejoin="round" d="M16.89 44.61c.8 3.38 2.31 9.48 2.31 9.48-2.06 2.7-2.9 5.3-2.28 8.49"/><path fill="#2A88E6" d="M24.83 15.58c2.22.13 4.63.45 6.81 2.25-10.73 2.29-10.8 4.83-15.01 1.58a10.08 10.08 0 0 1 8.2-3.83Z"/><path stroke="#000" stroke-linecap="round" stroke-linejoin="round" d="M25.37 18.83c-.12-.4-.17-.8-.16-1.22M25.02 18.93a3.7 3.7 0 0 1-.51-1.1M24.99 18.93a3.6 3.6 0 0 1-1.1-.49M19.43 19.34c-.1-.32-.13-.66-.1-1M19.07 19.4a2.48 2.48 0 0 1-.38-.9M19.04 19.4c-.31-.08-.6-.24-.87-.44"/><path fill="#fff" d="M26.2 21.6c.4-1.49.03-2.9-.84-3.13-.88-.24-1.92.77-2.33 2.26-.4 1.49-.03 2.89.84 3.13.87.24 1.91-.77 2.32-2.26Z"/><path fill="#000" d="M24.9 21.04c.19-.67.02-1.3-.37-1.41-.4-.1-.87.34-1.05 1.01-.18.67-.01 1.3.38 1.4.4.12.86-.34 1.05-1Z"/><path fill="#fff" d="M19.7 21.75c.56-1.4.48-2.75-.18-3.01-.66-.26-1.65.66-2.2 2.06-.56 1.4-.47 2.76.19 3.02.66.26 1.64-.67 2.2-2.07Z"/><path fill="#000" d="M20.94 27.32a.8.8 0 0 1-1.1 0c-1.96-1.77-2.95-1.77-2.95.51 0 2.28 2.18 8.46 4.6 8.46 2.4 0 3.98-4.09 4.78-7.2.8-3.12-.7-4.28-2.25-3.77a11.59 11.59 0 0 0-3.08 2Z"/><path fill="#FF78B9" d="M22.87 31.72c-.74-.55-1.87-.39-2.54.16-.68.55-1.55 1.6-.65 2.6s2.77.46 3.7-.45c.93-.9 1.7-1.57 1.54-2.21-.16-.65-.77-.77-2.05-.1Z"/><path fill="#000" d="M19.17 21.2c.23-.58.19-1.14-.1-1.25-.28-.11-.69.26-.92.84-.23.58-.19 1.14.1 1.25.27.11.69-.27.92-.84Z"/><path fill="#FF78B9" d="M19.2 16.39c0-1.77 2.93-1.32 4.44-1.22 2.18.12 5.5.28 7.97 2.6v.06c-1.77-1.67-8.42-1.44-12.4-1.44Z"/><path fill="#EB459F" d="M31.64 17.83c-.36-.3-.78-.52-1.22-.67l-.29-.48c0-.45.23-.55.42-.39.2.16.67.84 1.06 1.48l.03.06Z"/><path fill="#459FF7" d="M41.16 45.77 32.35 32.9c3.21-5.37 6.52-7.33 11.06-2.28 4.53 5.04 7.58 11.57 9.25 14.62 1.68 3.06 1.42 5.05-1.06 7.3H41.25a2.25 2.25 0 0 1-2.05-1.38c-.94-2.22.1-4.3 1.96-5.4Z"/><path stroke="#000" stroke-linecap="round" stroke-linejoin="round" d="M41.25 52.55a2.25 2.25 0 0 1-2.05-1.38c-.94-2.22.1-4.3 1.96-5.4l-4.76-6.95M22.93 31.33a6.46 6.46 0 0 0-2.47 2.06"/><path stroke="#2A88E6" stroke-linecap="round" stroke-linejoin="round" stroke-width="2" d="M25.76 39.47c-.77.53-1.7.76-2.64.64a4.98 4.98 0 0 1-3.21-1.67"/><path fill="#000" d="M30.23 36.41h.1a.32.32 0 0 0 .28-.22 19.95 19.95 0 0 1 4.76-7.14 7.43 7.43 0 0 1-.06-.77 20.12 20.12 0 0 0-5.3 7.84.32.32 0 0 0 .22.3Z"/><path stroke="#000" stroke-linecap="round" stroke-linejoin="round" stroke-width="2" d="M41.16 45.77c1.73-1.06 4.53-1.6 6.52-.55"/></g><defs><clipPath id="a"><rect width="45" height="45" fill="#fff" rx="22.5"/></clipPath></defs></svg>