<svg xmlns="http://www.w3.org/2000/svg" width="45" height="45" fill="none"><rect width="45" height="45" fill="#18191C" rx="22.5"/><path fill="#DD3E59" d="M16.08 34.73h-2.8l2.5.9-1.1 1.8 3.3-1.4 5.9 4.3c1.2.9 1.5.3 7.5-7.3l-11.5.5-3.8 1.2Z"/><path fill="#F6CA9D" d="M20.28 35.03c-8.9.3-14-5-11.5-12.2-1.5-8 .5-10.6.9-11.1s2.5 1.3 4.6 2.9c5.4-4.2 12.2-4.7 17.1.5 5.3-2.3 6.3-1.8 6.9-1.8.6 0 .8 3.2.3 5.9a11.6 11.6 0 0 1-2 4.6c1 4.5-.6 10.7-16.3 11.2Z"/><path fill="#fff" d="M34.08 26.23c-1.1-1.3-2.9-1.5-6.2-1.1-3.3.4-4.3-.3-5.4-1.8a3.7 3.7 0 0 0-3.3-1.7c-1.1 0-2.5.4-3.2 3.1-5.6 0-7.6 4.3-6.4 6.2 1.2 1.9 5.7 4.3 10.7 4.1 6.8-.2 10.9-1.5 13.4-3.2a3.8 3.8 0 0 0 .4-5.6ZM35.68 22.03a23.3 23.3 0 0 0-3.4-5.7 12.6 12.6 0 0 1 5.1-1.9c.3.1 1 3.2-1.7 7.6ZM24.7 16.87c.12-.49-.44-1.04-1.24-1.23-.8-.2-1.55.03-1.67.52-.12.48.44 1.03 1.24 1.23.8.2 1.55-.04 1.67-.52ZM16.17 17.97c.66-.5.98-1.2.7-1.55-.26-.35-1.01-.22-1.67.28-.66.5-.98 1.2-.7 1.54.26.35 1.01.23 1.67-.27Z"/><path fill="#5F131D" d="M23.38 22.23a1.1 1.1 0 0 1 .8-.8c.37-.18.8-.22 1.2-.1a2.8 2.8 0 0 1 1.8 1.2c0 .1 0 .3-.1.3h-.2a4.1 4.1 0 0 0-1.7-.7h-.7c-.3 0-.58.11-.8.3-.2 0-.3 0-.3-.1s-.1-.1 0-.1ZM12.08 23.43c.1-.33.32-.6.6-.8l.9-.5a2 2 0 0 1 1.1.2 1 1 0 0 1 .6.8c.1.2 0 .3-.2.3h-.1a1 1 0 0 0-.6-.2h-1.2l-.7.4a.2.2 0 0 1-.3-.1c-.1 0-.1 0-.1-.1Z"/><path fill="#892B25" d="M19.08 24.33c.88 0 1.6-.4 1.6-.9s-.72-.9-1.6-.9c-.89 0-1.6.4-1.6.9s.71.9 1.6.9ZM14.88 27.73a1.4 1.4 0 0 1-1.1-.4 1.6 1.6 0 0 1-.1-1.5.4.4 0 0 1 .5-.2c.1.11.17.25.2.4-.2.4-.2.7-.1.8.1.1.5.2.9.2l2.3-.8 1.2-.3 1.5.3 3 .6c1.2.2 2.1.1 2.3-.2.2-.3.2-.2 0-.6-.2-.4.1-.4.2-.4a.4.4 0 0 1 .5.2 1.1 1.1 0 0 1-.2 1.2c-.4.5-1.3.7-2.9.5l-3.1-.7-1.3-.3-.9.4c-.82.3-1.66.52-2.5.7l-.4.1Z"/><path fill="#892B25" d="M18.68 26.53a.3.3 0 0 1-.3-.3v-1.9c.1-.2.2-.3.4-.3s.3.2.3.4l-.2 1.8a.3.3 0 0 1-.2.3Z"/></svg>