<svg xmlns="http://www.w3.org/2000/svg" width="45" height="45" fill="none"><g clip-path="url(#a)"><rect width="45" height="45" fill="#FFE75C" rx="22.5"/><path fill="#2A39D4" d="M18.26 14.62c.4-1.15-.25-2.41-1.43-2.81-1.18-.4-2.45.2-2.84 1.35-.4 1.15.24 2.4 1.42 2.81 1.18.4 2.46-.2 2.85-1.35Z"/><path fill="#2331B5" d="M30.74 36.8c1.97.32 4.24 1.45 6.83 5.12 1.88-1.47 2.66-.93 4.67 1.28 2 2.21 6.4 6.46 7.44 7.83 1.03 1.38 1.63 4.13-1.86 5.72-3.5 1.58-8.87-2.78-11.64-5.27-2.78-2.48-6.57-5.46-6.57-5.46l1.13-9.23Z"/><path fill="#3442D9" d="M41.43 42.34c.52 1.19 1.2 2.9 1.49 4.34.4 2.03-.54 3.09-2.3 4.22-1.59 1.03-2.38.76-3.15-.02a.24.24 0 0 0-.34.33c.39.44.91.72 1.48.82.66.08 1.4-.17 2.27-.73 1.54-1 3-2.18 2.5-4.71-.2-.93-.46-1.83-.8-2.71a2.84 2.84 0 0 0-.6-.95c-.19-.22-.42-.46-.55-.59Z"/><path fill="#FF78B9" d="M23.51 35.12c7.28-1.15 12.34-7.4 11.3-13.94-1.03-6.55-7.77-10.93-15.04-9.78-7.28 1.15-12.34 7.4-11.3 13.94 1.03 6.55 7.77 10.93 15.04 9.78Z"/><path fill="#fff" d="M12.52 21.23c-.32 2.62.65 5.09 2.17 5.52 1.34.39 2.06-.9 2.42-3.41.1-.66.21-1.31.33-1.96.45-2.34-.24-3.7-1.6-4.09-1.51-.43-3 1.33-3.32 3.94Z"/><path fill="#D11583" d="M24.03 22.81a2.27 2.27 0 0 1 .14-2.5c2.6-3.43 4.6-3.31 6.03-3.07 1.57.28 2.32 1.72.75 4.95 1.44 2 .54 3.56-1.86 3.51-2.07-.06-3.63-.42-5.06-2.89Z"/><path fill="#2331B5" d="M35.13 60.94c1.43-8.89-1.28-10.38-1.23-13.06.05-2.68.22-6.3-2.24-10.53 0 0 .77-3.57 1.27-5.98a.63.63 0 0 0-.64-.76 30.5 30.5 0 0 1-5.8-.36c-3.31-.5-7.76-1.39-13.11 2.68l1.3 2.37-.14.17a1.05 1.05 0 0 0 .36 1.56l.28.14s-4.69 2.1-4.1 8.2c.57 6.11-1.52 11.7.46 13.74a3.39 3.39 0 0 0 3.15.93l9.42 6.59c3.18 4.5 7.82 9.67 7.82 9.67l-5.19 9.11 7.16-6.08c4.7-8.43 6.28.73 7.62-3.17 1.34-3.9-1.08-6.62-6.4-15.22Z"/><path fill="#3442D9" d="M32.84 31.82c-2.02.41-4.58.08-7.6-.37-3.26-.5-6.1-.93-11.57 2.01l.68 1.26c5.05-2.71 7.55-2.33 10.67-1.86 2.89.44 5.38.75 7.5.46l.32-1.5Z"/><path fill="#000" d="M27.95 59.61a.24.24 0 0 0 .27-.2c.6-4.36-.53-9.01-1.04-10.82a18.13 18.13 0 0 1-.64-5.7c.1-2.5-.19-4.5-.42-5.28l1.8-7.18-.49-.06-1.81 7.25.02.06c.2.68.51 2.69.41 5.2-.09 1.97.13 3.94.67 5.85.5 1.77 1.6 6.35 1.03 10.61a.23.23 0 0 0 .04.18.23.23 0 0 0 .16.1Z"/><path fill="#2331B5" d="M21.61 59.3c.14-.82-.57-3.91-1.6-6.22-1.04-2.3-1.52-3.9-2.83-3.35-1.3.56-4.38 2.07-4.38 2.07s2.57-2.74 4-4.4c3.12-3.64 2.89-9.22-1.62-10.21-3.97 1.6-4.77 3.3-9.04 9.08-4.28 5.79-7.2 12.2-3.75 15.38 3.45 3.19 7.37 1.76 14.6-.4 3.1-.93 4.49-1.13 4.62-1.94"/><path fill="#66BCFF" d="M35.95 39.73a.55.55 0 0 1-.54-.54 95.1 95.1 0 0 1 1.13-17.28.6.6 0 0 0-.7-.7l-6.98 1.07a.55.55 0 1 1-.17-1.08l7-1.08a1.7 1.7 0 0 1 1.93 1.96 93.98 93.98 0 0 0-1.12 17.09.55.55 0 0 1-.53.56h-.02Z"/><path fill="#fff" d="M31.53 39.12c.52 1.32 1.42 3.7 1.58 4.45-.06 1.15-.35 3.1-.45 3.72a.22.22 0 0 0 .16.24c1.82.51 2.62.65 3.38.63a22.82 22.82 0 0 0 2.74-.37.32.32 0 0 0 .15-.33c-.43-2.3-.68-3.99-.68-3.99.19-2.77.44-4.96.53-5.7a.29.29 0 0 0-.23-.32c-2.5-.46-3.39-.58-4.32-.63-.93-.04-1.3.45-2.74 1.81a.45.45 0 0 0-.12.49Z"/><path fill="#FFC619" d="M38.78 47.6s.28.15.05.23a.31.31 0 0 0 .2-.13.32.32 0 0 0 .06-.24c-.43-2.31-.68-3.99-.68-3.99.19-2.78.44-4.96.53-5.7a.28.28 0 0 0-.23-.32c-2.5-.46-3.39-.59-4.32-.63-.2-.01-.4 0-.58.06l1.77 5.34-.73 4.65 3.93.73Z"/><path fill="#FF78B9" d="M35.13 47.04c.27 1.7.53 2.92 1.52 3.27 1 .34 2.37-.56 4.15-1.95 1.77-1.4 1.38-2.8.85-4.12-.54-1.32-.44-2.91-1.2-3.67-.95-.88-2-1.68-3.1-2.36-.91-.55-1.47-.62-3.13.85-1.66 1.46-2.58 2.3-2.4 2.97.12.5.28.97.46 1.44-.72.59-.8 1.12-.6 1.84.2.71.22 1.35 1.6 1.52 1.38.17 1.85.2 1.85.2Z"/><path fill="#000" d="M32.37 43.45a.27.27 0 0 1-.16-.5 410.86 410.86 0 0 0 4.33-3.17.27.27 0 0 1 .36.2.27.27 0 0 1-.13.3c-.02 0-1.99 1.48-4.24 3.12a.27.27 0 0 1-.16.05ZM14.1 21.6c-.22 1.11.04 2.11.58 2.22.46.1.88-.28 1.02-1.34.07-.45.18-.88.33-1.3.31-.92-.07-1.33-.53-1.42-.54-.11-1.17.7-1.4 1.83Z"/><path fill="#2A39D4" d="M24.3 9.07c.95-.08 2.28.55 2.54 1.88.25 1.33.36 3.3-1.86 3.39-.95.03-1.85-.5-3.18-1.82-.95-.96-2.06-1.4-4.68-.44-1.23-1.07-.26-3.35 3.2-1.73-1.34-2.22-.69-3.58.49-3.84 1.17-.25 2.86.15 3.5 2.56Z"/><path fill="#000" d="M23.82 12.99a17.94 17.94 0 0 1-1.57-3.65c-.45-1.3-.82-2.4-1.37-2.84l-.08.01c-.22.05-.42.14-.6.27a.39.39 0 0 1 .18-.02c.51.1.95 1.38 1.42 2.74.43 1.23.9 2.62 1.61 3.74.23.36.5.7.8 1 .25.07.5.1.76.1h.05a5.98 5.98 0 0 1-1.2-1.35ZM26.5 13.72c-.13.15-.3.28-.48.38a7.3 7.3 0 0 0-1.69-5.03c.22-.01.44 0 .65.06a7.73 7.73 0 0 1 1.52 4.59ZM17.84 37.77h-.03l-2.67-.33a.28.28 0 0 1 .07-.54l2.66.33a.27.27 0 0 1-.03.54Z"/><path fill="#fff" d="m16.54 20.64-1.68.58 2.1 1.25-.42-1.83Z"/><path fill="#000" d="M29.6 23.25a.28.28 0 0 1-.24-.14c-.03-.04-.65-1.03-2.36-1.03a.27.27 0 0 1-.02-.54c1.39-.11 2-.7 2.35-1.13a.27.27 0 0 1 .43.35c-.36.45-.83.8-1.36 1.01.58.2 1.08.57 1.43 1.08a.27.27 0 0 1-.1.37.28.28 0 0 1-.14.03Z"/></g><defs><clipPath id="a"><rect width="45" height="45" fill="#fff" rx="22.5"/></clipPath></defs></svg>