<svg xmlns="http://www.w3.org/2000/svg" width="45" height="45" fill="none"><g clip-path="url(#a)"><rect width="45" height="45" fill="#5865F2" rx="22.5"/><path fill="#AABFF2" d="M33.82 39.6c0-4.75-4.21-8.64-9.37-8.64h-3.74c-5.16 0-9.37 3.9-9.37 8.65v4.32c0 .59.08 1.17.24 1.73h22c.16-.56.24-1.14.24-1.73v-4.32Z"/><path fill="#FFC239" d="M19.21 18.58a.7.7 0 0 0-.14-.36c-1.12-1.53-2.23-3.25-3.59-4.67a99.83 99.83 0 0 0-3.35 3.63c.32.6.7 1.18.92 1.81l6.16-.41Zm13.69 2.35c-.11-1.38-.3-2.76-.58-4.12-.19-1.01-.43-2.02-.7-3v-.03c-1.48.84-3 1.56-4.5 2.28v.02c-.05.82-.1 1.76.1 2.58"/><path fill="#000" d="m31.6 13.75-.04-.15c-.2-.72-.38-1.57-.9-2.11a1.46 1.46 0 0 0-1.93-.22c-.66.46-.96 1.36-1.18 2.1-.26.87-.4 1.77-.44 2.68 1.5-.73 3.03-1.44 4.5-2.28v-.02Zm-18.2-1.92c-.44-.27-.97-.5-1.47-.34-.64.18-.94.92-.98 1.58-.06 1.11.45 2.07.76 3.11.1.35.25.69.42 1 1.1-1.23 2.21-2.44 3.35-3.62a10.57 10.57 0 0 0-2.08-1.73Z"/><path fill="#FFC239" d="M34.8 22.32v-.1c-.03-.15-.03-.3-.03-.45a4.9 4.9 0 0 0-.24-1.39 8.6 8.6 0 0 0-.47-1.13c-1.48-2.96-4.3-3.5-7.12-3.63a73.64 73.64 0 0 0-3.74-.12c-3.83 0-6.62.52-9.06 1.66a5.64 5.64 0 0 0-2.96 3.29l-.43 1.77.2.11h23.84Z"/><path fill="#AABFF2" d="M36.68 23.27c-.4-1.24-1.52-1.25-2.6-1.2a9.23 9.23 0 0 0-.78-2.43c-1.28-2.56-3.77-3.03-6.4-3.16-4.2-.2-8.59-.32-12.39 1.46-1.78.84-2.3 2.23-2.7 3.29-.07.19-.12.4-.18.6l-.16-.02c-2.81-.19-3.5 2.08-3.47 4.5.02 1.16.1 2.72.61 3.8.55 1.13 1.76 1.03 2.84.98.1 0 .19-.02.28-.04.9 2.54 3.11 3.53 5.7 3.87 3.95.52 8.4.66 12.35.02 2.46-.4 3.56-1.87 4.05-3.85.32-.01.64-.06.95-.15 1.38-.4 2.15-.9 2.3-2.4.16-1.64.1-3.7-.4-5.27Z"/><path fill="#CBDAF7" d="M27.12 23.23c-1.04-.8-2.49-.84-3.73-.91-1.74-.1-3.49-.01-5.2.27a1.7 1.7 0 0 0-.47.15 1.5 1.5 0 0 0-1.23 1.17c-.6 2.44-.11 5.55 2.5 6.57 2.27.88 5.72.87 7.6-.73 1.7-1.44 2.56-4.94.53-6.52Z"/><path fill="#AABFF2" d="M20.45 27.16H18.8a.62.62 0 1 0 .08 1.24c.55.02 1.1.01 1.66.02.82 0 .73-1.26-.08-1.26Zm4.51.3c-.6-.04-1.22-.08-1.84-.1-.7-.03-.79 1.19-.08 1.23.67.05 1.34.1 2 .13.35.02.62-.36.6-.67-.03-.38-.33-.57-.68-.6Z"/><path fill="#000" d="M13.41 24.88c-1.53 0-1.37 2.37.15 2.37s1.38-2.37-.15-2.37Zm17.5.11c-1.62 0-1.46 2.52.16 2.52 1.62 0 1.46-2.52-.16-2.52Z"/><path fill="#7D94DF" d="M11.12 24.73c0-.49-.6-.66-.94-.45a.61.61 0 0 0-.79.45 8.8 8.8 0 0 0-.15 3.1c.1.73.25 1.55 1.1 1.7a.64.64 0 0 0 .75-.65c-.04-1.38.01-2.76.03-4.15Zm24.08-.08a.52.52 0 0 0-.44-.41.62.62 0 0 0-.89.58c.02 1.29.1 2.59.19 3.88a.66.66 0 0 0 .5.58c1.99.53.86-3.8.64-4.63Z"/><path fill="#FF766C" d="M13.63 28.98a1.26 1.26 0 0 0-1.42.5c-.15.23-.22.51-.18.79a1.26 1.26 0 0 0 1.37 1.06.76.76 0 0 0 .25-.09h.12a1.08 1.08 0 0 0 .96-1.1 1.16 1.16 0 0 0-1.1-1.16Zm18.53.77a1.4 1.4 0 0 0-1.1-.16 1.23 1.23 0 0 0-1.04.66.62.62 0 0 0 .11.7c.17.81 1.02 1.35 1.83.94.84-.41 1.04-1.6.2-2.14Z"/></g><defs><clipPath id="a"><rect width="45" height="45" fill="#fff" rx="22.5"/></clipPath></defs></svg>