<svg width="17" height="17" viewBox="0 0 17 17" fill="none" xmlns="http://www.w3.org/2000/svg">
<path d="M6.95703 9.20017C7.27912 9.63077 7.69005 9.98706 8.16194 10.2449C8.63384 10.5027 9.15566 10.656 9.69202 10.6944C10.2284 10.7328 10.7667 10.6554 11.2705 10.4675C11.7744 10.2796 12.2319 9.98547 12.612 9.60517L14.862 7.35517C15.5451 6.64791 15.9231 5.70065 15.9146 4.71741C15.906 3.73418 15.5116 2.79363 14.8164 2.09835C14.1211 1.40307 13.1805 1.00869 12.1973 1.00014C11.214 0.991598 10.2668 1.36958 9.55953 2.05267L8.26953 3.33517" stroke="black" stroke-width="2" stroke-linecap="round" stroke-linejoin="round"/>
<path d="M9.95767 7.69914C9.63558 7.26855 9.22465 6.91226 8.75276 6.65444C8.28086 6.39662 7.75904 6.24331 7.22268 6.20489C6.68632 6.16648 6.14798 6.24387 5.64416 6.43181C5.14034 6.61975 4.68283 6.91384 4.30267 7.29414L2.05267 9.54414C1.36958 10.2514 0.991598 11.1987 1.00014 12.1819C1.00869 13.1651 1.40307 14.1057 2.09835 14.801C2.79363 15.4962 3.73418 15.8906 4.71741 15.8992C5.70065 15.9077 6.64791 15.5297 7.35517 14.8466L8.63767 13.5641" stroke="black" stroke-width="2" stroke-linecap="round" stroke-linejoin="round"/>
</svg>
