<?xml version="1.0" standalone="no"?>
<!DOCTYPE svg PUBLIC "-//W3C//DTD SVG 20010904//EN"
 "http://www.w3.org/TR/2001/REC-SVG-20010904/DTD/svg10.dtd">
<svg version="1.0" xmlns="http://www.w3.org/2000/svg"
 width="1280.000000pt" height="1105.000000pt" viewBox="0 0 1280.000000 1105.000000"
 preserveAspectRatio="xMidYMid meet">
<metadata>
Created by potrace 1.15, written by Peter Selinger 2001-2017
</metadata>
<g transform="translate(0.000000,1105.000000) scale(0.100000,-0.100000)"
fill="#000000" stroke="none">
<path d="M4983 11039 c-476 -42 -914 -198 -1323 -471 -637 -424 -1192 -1096
-1773 -2148 -76 -136 -243 -305 -364 -366 -67 -34 -84 -39 -166 -42 -114 -5
-160 3 -415 75 l-203 57 -370 -370 -369 -369 1127 -1127 1128 -1128 342 343
343 342 35 125 c136 478 287 742 475 829 44 20 71 25 135 26 102 0 184 -27
299 -100 137 -86 225 -163 491 -427 l249 -249 816 816 815 816 -60 51 c-112
96 -331 323 -397 413 -125 169 -197 334 -218 498 -76 613 678 1175 2076 1546
202 54 475 116 562 127 29 4 50 10 45 14 -4 3 -78 26 -163 49 -145 41 -354
105 -1020 316 -959 303 -1551 403 -2097 354z"/>
<path d="M11143 10550 c-223 -23 -432 -109 -597 -246 -48 -41 -2283 -2231
-2844 -2787 l-132 -132 280 -280 279 -279 1281 1284 1281 1284 129 -129 c72
-71 130 -134 130 -140 0 -5 -575 -585 -1277 -1287 l-1278 -1278 208 -207 207
-208 1300 1300 1300 1301 132 -133 133 -133 -1300 -1300 -1300 -1300 268 -267
267 -268 1446 1445 c795 795 1465 1473 1489 1506 67 94 149 257 189 375 135
408 56 841 -225 1219 -326 440 -884 709 -1366 660z"/>
<path d="M5810 6435 l-805 -805 126 -127 c69 -71 631 -644 1247 -1276 3387
-3465 3807 -3894 3857 -3938 148 -129 389 -240 595 -274 626 -101 1276 366
1396 1004 24 127 15 326 -21 445 -31 108 -107 258 -174 346 -28 36 -1257 1272
-2733 2748 l-2683 2682 -805 -805z"/>
<path d="M4250 2774 l-1245 -1166 -257 -516 c-141 -284 -257 -520 -257 -523
-1 -9 339 -281 353 -283 6 0 277 176 601 393 l590 393 1078 1077 c592 592
1077 1080 1077 1086 0 6 -156 166 -348 358 l-347 347 -1245 -1166z"/>
</g>
</svg>
