<svg xmlns="http://www.w3.org/2000/svg" width="1706.67" height="1473.33" version="1.0" viewBox="0 0 1280 1105"><path d="M498.3 1.1C450.7 5.3 406.9 20.9 366 48.2 302.3 90.6 246.8 157.8 188.7 263c-7.6 13.6-24.3 30.5-36.4 36.6-6.7 3.4-8.4 3.9-16.6 4.2-11.4.5-16-.3-41.5-7.5l-20.3-5.7-37 37L0 364.5l112.7 112.7L225.5 590l34.2-34.3 34.3-34.2 3.5-12.5c13.6-47.8 28.7-74.2 47.5-82.9 4.4-2 7.1-2.5 13.5-2.6 10.2 0 18.4 2.7 29.9 10 13.7 8.6 22.5 16.3 49.1 42.7l24.9 24.9 81.6-81.6 81.5-81.6-6-5.1c-11.2-9.6-33.1-32.3-39.7-41.3-12.5-16.9-19.7-33.4-21.8-49.8-7.6-61.3 67.8-117.5 207.6-154.6 20.2-5.4 47.5-11.6 56.2-12.7 2.9-.4 5-1 4.5-1.4-.4-.3-7.8-2.6-16.3-4.9-14.5-4.1-35.4-10.5-102-31.6C612.1 6.2 552.9-3.8 498.3 1.1zM1114.3 50c-22.3 2.3-43.2 10.9-59.7 24.6-4.8 4.1-228.3 223.1-284.4 278.7L757 366.5l28 28 27.9 27.9L941 294l128.1-128.4 12.9 12.9c7.2 7.1 13 13.4 13 14 0 .5-57.5 58.5-127.7 128.7L839.5 449l20.8 20.7 20.7 20.8 130-130 130-130.1 13.2 13.3 13.3 13.3-130 130-130 130 26.8 26.7 26.7 26.8L1105.6 426c79.5-79.5 146.5-147.3 148.9-150.6 6.7-9.4 14.9-25.7 18.9-37.5 13.5-40.8 5.6-84.1-22.5-121.9-32.6-44-88.4-70.9-136.6-66zM581 461.5 500.5 542l12.6 12.7c6.9 7.1 63.1 64.4 124.7 127.6 338.7 346.5 380.7 389.4 385.7 393.8 14.8 12.9 38.9 24 59.5 27.4 62.6 10.1 127.6-36.6 139.6-100.4 2.4-12.7 1.5-32.6-2.1-44.5-3.1-10.8-10.7-25.8-17.4-34.6-2.8-3.6-125.7-127.2-273.3-274.8L661.5 381 581 461.5zM425 827.6 300.5 944.2l-25.7 51.6c-14.1 28.4-25.7 52-25.7 52.3-.1.9 33.9 28.1 35.3 28.3.6 0 27.7-17.6 60.1-39.3l59-39.3 107.8-107.7c59.2-59.2 107.7-108 107.7-108.6 0-.6-15.6-16.6-34.8-35.8L549.5 711 425 827.6z"/></svg>