<svg width="23" height="21" viewBox="0 0 23 21" fill="none" xmlns="http://www.w3.org/2000/svg">
<path d="M20.748 16.0139L12.748 2.0139C12.5736 1.7061 12.3206 1.45008 12.0149 1.27197C11.7092 1.09385 11.3618 1 11.008 1C10.6542 1 10.3068 1.09385 10.0011 1.27197C9.69539 1.45008 9.44243 1.7061 9.268 2.0139L1.268 16.0139C1.09168 16.3193 0.999224 16.6658 1 17.0184C1.00079 17.371 1.09477 17.7171 1.27244 18.0217C1.45011 18.3263 1.70514 18.5785 2.01169 18.7527C2.31824 18.927 2.6654 19.0171 3.018 19.0139H19.018C19.3689 19.0135 19.7135 18.9209 20.0173 18.7452C20.321 18.5695 20.5732 18.317 20.7485 18.013C20.9238 17.709 21.016 17.3643 21.0159 17.0134C21.0159 16.6625 20.9234 16.3178 20.748 16.0139Z" stroke="black" stroke-width="2" stroke-linecap="round" stroke-linejoin="round"/>
<path d="M11.0195 7.01562V11.0156" stroke="black" stroke-width="2" stroke-linecap="round" stroke-linejoin="round"/>
<path d="M11.0195 15.0156H11.0295" stroke="black" stroke-width="2" stroke-linecap="round" stroke-linejoin="round"/>
</svg>
