<svg width="22" height="22" viewBox="0 0 22 22" fill="none" xmlns="http://www.w3.org/2000/svg">
<path d="M7.69995 2.00001C8.60376 1.4048 9.65173 1.06511 10.7329 1.01694C11.814 0.968758 12.888 1.21388 13.8412 1.72634C14.7943 2.23879 15.5912 2.99951 16.1473 3.9279C16.7033 4.8563 16.998 5.91781 17 7.00001C17.0015 8.68453 17.2029 10.3629 17.6 12M16 16H2C2 16 5 14 5 7C4.99349 6.41962 5.09522 5.8431 5.3 5.3M9.30005 20C9.46743 20.3044 9.7135 20.5583 10.0125 20.7352C10.3116 20.912 10.6526 21.0053 11 21.0053C11.3475 21.0053 11.6885 20.912 11.9876 20.7352C12.2866 20.5583 12.5327 20.3044 12.7 20M1 1L21 21" stroke="#18181B" stroke-width="2" stroke-linecap="round" stroke-linejoin="round"/>
</svg>
